# 3ds Max Wavefront OBJ Exporter v0.99 - (c)2007 guruware
# File Created: 23.11.2022 12:55:55

#
# object Ground_and_Fountain
#

v  -2.3442 0.2824 38.2893
v  -2.3442 0.2824 -36.9799
v  -27.9182 0.2824 -36.9799
v  -27.9182 0.2824 38.2893
v  3.8250 0.2824 38.2893
v  3.8250 0.2824 -36.9799
v  30.1912 0.2824 38.2893
v  30.1912 0.2824 -36.9799
v  14.1664 0.6518 5.6184
v  14.0743 0.8252 5.6956
v  14.1166 0.8252 5.8117
v  14.2368 0.6518 5.8117
v  14.0629 2.2424 5.7052
v  14.1017 2.2424 5.8117
v  14.2845 2.2174 5.8117
v  14.2029 2.2174 5.5877
v  14.1870 3.0393 5.8117
v  14.3555 3.0750 5.8117
v  14.2573 3.0750 5.5420
v  14.1282 3.0393 5.6504
v  13.8106 3.0393 6.0288
v  13.7004 3.0393 5.8974
v  13.5422 3.0750 5.9550
v  13.7264 3.0750 6.1746
v  13.8700 3.4224 5.9259
v  13.8121 3.4224 5.8568
v  13.8558 3.2317 5.8409
v  13.8933 3.2317 5.8856
v  14.0371 3.4224 5.8965
v  13.9589 3.4224 5.9416
v  13.9508 3.2317 5.8958
v  14.0015 3.2317 5.8666
v  14.0215 3.2317 5.8117
v  14.0680 3.4224 5.8117
v  13.9830 3.6179 5.8511
v  13.9974 3.6179 5.8117
v  13.9467 3.6179 5.8721
v  13.9054 3.6179 5.8648
v  13.8784 3.6179 5.8326
v  14.2573 3.0750 6.0813
v  14.1282 3.0393 5.9730
v  13.9796 3.0393 6.0587
v  14.0088 3.0750 6.2246
v  13.9878 3.1762 6.1057
v  14.1648 3.1762 6.0037
v  14.2348 3.1762 5.8117
v  13.6556 3.1762 5.9137
v  13.7867 3.1762 6.0702
v  13.7004 3.0393 5.7259
v  13.8106 3.0393 5.5945
v  13.7264 3.0750 5.4487
v  13.5422 3.0750 5.6684
v  13.8121 3.4224 5.7666
v  13.8700 3.4224 5.6974
v  13.8933 3.2317 5.7377
v  13.8558 3.2317 5.7825
v  13.8784 3.6179 5.7907
v  13.9054 3.6179 5.7586
v  13.7867 3.1762 5.5532
v  13.6556 3.1762 5.7096
v  14.0015 3.2317 5.7568
v  14.0371 3.4224 5.7268
v  13.9589 3.4224 5.6817
v  13.9508 3.2317 5.7276
v  13.9467 3.6179 5.7513
v  13.9830 3.6179 5.7722
v  13.9796 3.0393 5.5646
v  14.0088 3.0750 5.3988
v  13.9878 3.1762 5.5176
v  14.1648 3.1762 5.6197
v  13.8532 2.2424 5.9550
v  13.7805 2.2424 5.8683
v  13.6089 2.2174 5.9307
v  13.7619 2.2174 6.1132
v  13.8508 2.5819 5.8427
v  13.8907 2.5819 5.8902
v  13.8556 2.7639 5.9510
v  13.7849 2.7639 5.8667
v  13.9518 2.5819 5.9010
v  14.0055 2.5819 5.8700
v  14.0593 2.7639 5.9152
v  13.9640 2.7639 5.9702
v  13.9580 2.9178 5.9367
v  14.0333 2.9178 5.8933
v  14.0630 2.9178 5.8117
v  14.0970 2.7639 5.8117
v  14.0268 2.5819 5.8117
v  13.8168 2.9178 5.8551
v  13.8726 2.9178 5.9216
v  14.0629 2.2424 5.9182
v  13.9648 2.2424 5.9748
v  13.9965 2.2174 6.1547
v  14.2029 2.2174 6.0356
v  14.0440 2.3855 5.9023
v  13.9605 2.3855 5.9504
v  14.0770 2.3855 5.8117
v  13.8037 2.3855 5.8598
v  13.8656 2.3855 5.9336
v  14.0055 2.5819 5.7533
v  14.0593 2.7639 5.7082
v  13.8508 2.5819 5.7807
v  13.7849 2.7639 5.7567
v  13.8556 2.7639 5.6723
v  13.8907 2.5819 5.7331
v  13.8726 2.9178 5.7018
v  13.8168 2.9178 5.7683
v  13.9518 2.5819 5.7223
v  13.9640 2.7639 5.6532
v  13.9580 2.9178 5.6867
v  14.0333 2.9178 5.7301
v  13.6089 2.2174 5.6926
v  13.7805 2.2424 5.7551
v  13.8532 2.2424 5.6683
v  13.7619 2.2174 5.5102
v  13.8656 2.3855 5.6897
v  13.8037 2.3855 5.7635
v  13.9965 2.2174 5.4687
v  13.9648 2.2424 5.6486
v  13.9605 2.3855 5.6729
v  14.0440 2.3855 5.7211
v  14.0760 1.8127 5.6942
v  14.1188 1.8127 5.8117
v  14.2746 1.9123 5.8117
v  14.1953 1.9123 5.5941
v  13.8447 1.8127 5.9698
v  13.7644 1.8127 5.8741
v  13.6182 1.9123 5.9273
v  13.7669 1.9123 6.1046
v  13.5764 2.0890 6.4345
v  13.6134 2.1780 6.3705
v  13.3298 2.1780 6.0323
v  13.2603 2.0890 6.0576
v  14.4307 2.1780 6.2268
v  14.0481 2.1780 6.4474
v  14.0609 2.0890 6.5203
v  14.4874 2.0890 6.2743
v  14.6559 2.0890 5.8117
v  14.5819 2.1780 5.8117
v  14.0760 1.8127 5.9292
v  13.9677 1.8127 5.9916
v  13.9948 1.9123 6.1449
v  14.1953 1.9123 6.0293
v  14.3291 1.9998 6.1416
v  14.0251 1.9998 6.3169
v  14.4493 1.9998 5.8117
v  13.6796 1.9998 6.2558
v  13.4542 1.9998 5.9870
v  13.7644 1.8127 5.7492
v  13.8447 1.8127 5.6535
v  13.7669 1.9123 5.5187
v  13.6182 1.9123 5.6960
v  13.2603 2.0890 5.5657
v  13.3298 2.1780 5.5910
v  13.6134 2.1780 5.2529
v  13.5764 2.0890 5.1888
v  13.6796 1.9998 5.3676
v  13.4542 1.9998 5.6363
v  14.4874 2.0890 5.3490
v  14.4307 2.1780 5.3966
v  14.0609 2.0890 5.1031
v  14.0481 2.1780 5.1760
v  13.9948 1.9123 5.4784
v  13.9677 1.8127 5.6318
v  14.0251 1.9998 5.3065
v  14.3291 1.9998 5.4818
v  13.7857 0.6518 6.0719
v  13.8458 0.8252 5.9679
v  13.7665 0.8252 5.8734
v  13.6537 0.6518 5.9144
v  13.7909 1.2159 6.0630
v  13.8417 1.3753 5.9749
v  13.7589 1.3753 5.8761
v  13.6634 1.2159 5.9109
v  14.0805 1.3753 5.9329
v  13.9687 1.3753 5.9974
v  13.9864 1.2159 6.0975
v  14.1585 1.2159 5.9983
v  14.0735 1.5951 5.9271
v  13.9672 1.5951 5.9884
v  14.1156 1.5951 5.8117
v  14.2264 1.2159 5.8117
v  14.1247 1.3753 5.8117
v  13.7675 1.5951 5.8730
v  13.8463 1.5951 5.9670
v  14.1664 0.6518 6.0050
v  14.0743 0.8252 5.9277
v  13.9673 0.8252 5.9894
v  13.9882 0.6518 6.1077
v  14.1318 1.0049 5.9760
v  13.9804 1.0049 6.0633
v  14.1916 1.0049 5.8117
v  13.6961 1.0049 5.8990
v  13.8083 1.0049 6.0328
v  14.0805 1.3753 5.6904
v  14.1585 1.2159 5.6250
v  13.6634 1.2159 5.7125
v  13.7589 1.3753 5.7472
v  13.8417 1.3753 5.6484
v  13.7909 1.2159 5.5604
v  13.8463 1.5951 5.6563
v  13.7675 1.5951 5.7503
v  13.9864 1.2159 5.5258
v  13.9687 1.3753 5.6260
v  13.9672 1.5951 5.6349
v  14.0735 1.5951 5.6963
v  13.6537 0.6518 5.7089
v  13.7665 0.8252 5.7500
v  13.8458 0.8252 5.6554
v  13.7857 0.6518 5.5514
v  13.8083 1.0049 5.5905
v  13.6961 1.0049 5.7243
v  13.9882 0.6518 5.5156
v  13.9673 0.8252 5.6339
v  13.9804 1.0049 5.5601
v  14.1318 1.0049 5.6474
v  13.5046 0.6416 6.1868
v  13.5046 0.4329 6.1868
v  14.3353 0.4329 6.1868
v  14.3353 0.6416 6.1868
v  14.3353 0.6416 5.4133
v  13.5046 0.6416 5.4133
v  13.5046 0.4329 5.4133
v  14.3353 0.4329 5.4133
v  13.9357 0.5363 3.0705
v  15.8737 0.5363 3.8732
v  15.8737 0.2253 3.8732
v  13.9357 0.2253 3.0705
v  11.9976 0.2253 3.8732
v  11.9976 0.5363 3.8732
v  11.1949 0.2253 5.8112
v  11.1949 0.5363 5.8112
v  11.9976 0.5363 7.7493
v  11.9976 0.2253 7.7493
v  13.9357 0.5363 8.5520
v  13.9357 0.2253 8.5520
v  15.8737 0.2253 7.7493
v  15.8737 0.5363 7.7493
v  16.6765 0.2253 5.8112
v  16.6765 0.5363 5.8112
v  13.9357 0.4664 3.5113
v  12.3093 0.4664 4.1849
v  11.6357 0.4664 5.8112
v  12.3093 0.4664 7.4376
v  13.9357 0.4664 8.1112
v  15.5620 0.4664 7.4376
v  16.2356 0.4664 5.8112
v  15.5620 0.4664 4.1849
v  15.7054 0.5363 4.0415
v  13.9357 0.5363 3.3084
v  12.1659 0.5363 4.0415
v  11.4328 0.5363 5.8112
v  12.1659 0.5363 7.5810
v  13.9357 0.5363 8.3141
v  15.7054 0.5363 7.5810
v  16.4385 0.5363 5.8112
v  -11.6620 0.8252 5.8117
v  -11.5418 0.6518 5.8117
v  -11.6122 0.6518 5.6184
v  -11.7043 0.8252 5.6956
v  -11.4941 2.2174 5.8117
v  -11.5757 2.2174 5.5877
v  -11.7157 2.2424 5.7052
v  -11.6769 2.2424 5.8117
v  -11.6504 3.0393 5.6504
v  -11.5916 3.0393 5.8117
v  -11.4231 3.0750 5.8117
v  -11.5213 3.0750 5.5420
v  -11.9680 3.0393 6.0288
v  -12.0782 3.0393 5.8974
v  -12.2364 3.0750 5.9550
v  -12.0522 3.0750 6.1746
v  -11.8853 3.2317 5.8856
v  -11.9086 3.4224 5.9259
v  -11.9665 3.4224 5.8568
v  -11.9228 3.2317 5.8409
v  -11.7772 3.2317 5.8666
v  -11.7415 3.4224 5.8965
v  -11.8197 3.4224 5.9416
v  -11.8278 3.2317 5.8958
v  -11.7571 3.2317 5.8117
v  -11.7106 3.4224 5.8117
v  -11.7812 3.6179 5.8117
v  -11.7956 3.6179 5.8511
v  -11.8320 3.6179 5.8721
v  -11.8732 3.6179 5.8648
v  -11.9002 3.6179 5.8326
v  -11.6504 3.0393 5.9730
v  -11.7991 3.0393 6.0587
v  -11.7698 3.0750 6.2246
v  -11.5213 3.0750 6.0813
v  -11.6138 3.1762 6.0037
v  -11.7908 3.1762 6.1057
v  -11.5438 3.1762 5.8117
v  -12.1230 3.1762 5.9137
v  -11.9919 3.1762 6.0702
v  -12.0782 3.0393 5.7259
v  -11.9680 3.0393 5.5945
v  -12.0522 3.0750 5.4487
v  -12.2364 3.0750 5.6684
v  -11.9228 3.2317 5.7825
v  -11.9665 3.4224 5.7666
v  -11.9086 3.4224 5.6974
v  -11.8853 3.2317 5.7377
v  -11.9002 3.6179 5.7907
v  -11.8732 3.6179 5.7586
v  -11.9919 3.1762 5.5532
v  -12.1230 3.1762 5.7096
v  -11.7415 3.4224 5.7268
v  -11.7772 3.2317 5.7568
v  -11.8197 3.4224 5.6817
v  -11.8278 3.2317 5.7276
v  -11.8320 3.6179 5.7513
v  -11.7956 3.6179 5.7722
v  -11.7991 3.0393 5.5646
v  -11.7698 3.0750 5.3988
v  -11.7908 3.1762 5.5176
v  -11.6138 3.1762 5.6197
v  -12.0167 2.2174 6.1132
v  -11.9254 2.2424 5.9550
v  -11.9981 2.2424 5.8683
v  -12.1697 2.2174 5.9307
v  -11.9938 2.7639 5.8667
v  -11.9278 2.5819 5.8427
v  -11.8879 2.5819 5.8902
v  -11.9230 2.7639 5.9510
v  -11.7731 2.5819 5.8700
v  -11.7193 2.7639 5.9152
v  -11.8147 2.7639 5.9702
v  -11.8268 2.5819 5.9010
v  -11.8206 2.9178 5.9367
v  -11.7453 2.9178 5.8933
v  -11.7156 2.9178 5.8117
v  -11.7518 2.5819 5.8117
v  -11.6816 2.7639 5.8117
v  -11.9060 2.9178 5.9216
v  -11.9618 2.9178 5.8551
v  -11.7157 2.2424 5.9182
v  -11.8138 2.2424 5.9748
v  -11.7821 2.2174 6.1547
v  -11.5757 2.2174 6.0356
v  -11.8181 2.3855 5.9504
v  -11.7346 2.3855 5.9023
v  -11.7016 2.3855 5.8117
v  -11.9749 2.3855 5.8598
v  -11.9130 2.3855 5.9336
v  -11.7731 2.5819 5.7533
v  -11.7193 2.7639 5.7082
v  -11.9230 2.7639 5.6723
v  -11.8879 2.5819 5.7331
v  -11.9278 2.5819 5.7807
v  -11.9938 2.7639 5.7567
v  -11.9060 2.9178 5.7018
v  -11.9618 2.9178 5.7683
v  -11.8268 2.5819 5.7223
v  -11.8147 2.7639 5.6532
v  -11.8206 2.9178 5.6867
v  -11.7453 2.9178 5.7301
v  -11.9254 2.2424 5.6683
v  -12.0167 2.2174 5.5102
v  -12.1697 2.2174 5.6926
v  -11.9981 2.2424 5.7551
v  -11.9130 2.3855 5.6897
v  -11.9749 2.3855 5.7635
v  -11.7821 2.2174 5.4687
v  -11.8138 2.2424 5.6486
v  -11.8181 2.3855 5.6729
v  -11.7346 2.3855 5.7211
v  -11.7026 1.8127 5.6942
v  -11.6598 1.8127 5.8117
v  -11.5040 1.9123 5.8117
v  -11.5833 1.9123 5.5941
v  -12.1604 1.9123 5.9273
v  -12.0117 1.9123 6.1046
v  -11.9339 1.8127 5.9698
v  -12.0142 1.8127 5.8741
v  -12.4488 2.1780 6.0323
v  -12.5183 2.0890 6.0576
v  -12.2022 2.0890 6.4345
v  -12.1653 2.1780 6.3705
v  -11.3480 2.1780 6.2268
v  -11.7305 2.1780 6.4474
v  -11.7177 2.0890 6.5203
v  -11.2912 2.0890 6.2743
v  -11.1968 2.1780 5.8117
v  -11.1227 2.0890 5.8117
v  -11.7026 1.8127 5.9292
v  -11.8109 1.8127 5.9916
v  -11.7839 1.9123 6.1449
v  -11.5833 1.9123 6.0293
v  -11.4495 1.9998 6.1416
v  -11.7535 1.9998 6.3169
v  -11.3293 1.9998 5.8117
v  -12.0990 1.9998 6.2558
v  -12.3244 1.9998 5.9870
v  -11.9339 1.8127 5.6535
v  -12.0117 1.9123 5.5187
v  -12.1604 1.9123 5.6960
v  -12.0142 1.8127 5.7492
v  -12.4488 2.1780 5.5910
v  -12.1653 2.1780 5.2529
v  -12.2022 2.0890 5.1888
v  -12.5183 2.0890 5.5657
v  -12.3244 1.9998 5.6363
v  -12.0990 1.9998 5.3676
v  -11.2912 2.0890 5.3490
v  -11.3480 2.1780 5.3966
v  -11.7305 2.1780 5.1760
v  -11.7177 2.0890 5.1031
v  -11.8109 1.8127 5.6318
v  -11.7839 1.9123 5.4784
v  -11.7535 1.9998 5.3065
v  -11.4495 1.9998 5.4818
v  -11.9328 0.8252 5.9679
v  -12.0121 0.8252 5.8734
v  -12.1249 0.6518 5.9144
v  -11.9929 0.6518 6.0719
v  -12.0197 1.3753 5.8761
v  -12.1152 1.2159 5.9109
v  -11.9877 1.2159 6.0630
v  -11.9369 1.3753 5.9749
v  -11.7922 1.2159 6.0975
v  -11.6202 1.2159 5.9983
v  -11.6981 1.3753 5.9329
v  -11.8099 1.3753 5.9974
v  -11.7051 1.5951 5.9271
v  -11.8114 1.5951 5.9884
v  -11.6630 1.5951 5.8117
v  -11.5522 1.2159 5.8117
v  -11.6539 1.3753 5.8117
v  -12.0112 1.5951 5.8730
v  -11.9323 1.5951 5.9670
v  -11.7904 0.6518 6.1077
v  -11.6122 0.6518 6.0050
v  -11.7043 0.8252 5.9277
v  -11.8113 0.8252 5.9894
v  -11.7982 1.0049 6.0633
v  -11.6468 1.0049 5.9760
v  -11.5870 1.0049 5.8117
v  -12.0825 1.0049 5.8990
v  -11.9703 1.0049 6.0328
v  -11.6202 1.2159 5.6250
v  -11.6981 1.3753 5.6904
v  -11.9369 1.3753 5.6484
v  -11.9877 1.2159 5.5604
v  -12.1152 1.2159 5.7125
v  -12.0197 1.3753 5.7472
v  -12.0112 1.5951 5.7503
v  -11.9323 1.5951 5.6563
v  -11.7922 1.2159 5.5258
v  -11.8099 1.3753 5.6260
v  -11.8114 1.5951 5.6349
v  -11.7051 1.5951 5.6963
v  -12.1249 0.6518 5.7089
v  -12.0121 0.8252 5.7500
v  -11.9328 0.8252 5.6554
v  -11.9929 0.6518 5.5514
v  -11.9703 1.0049 5.5905
v  -12.0825 1.0049 5.7243
v  -11.8113 0.8252 5.6339
v  -11.7904 0.6518 5.5156
v  -11.7982 1.0049 5.5601
v  -11.6468 1.0049 5.6474
v  -11.4433 0.4329 6.1868
v  -11.4433 0.6416 6.1868
v  -12.2740 0.6416 6.1868
v  -12.2740 0.4329 6.1868
v  -11.4433 0.6416 5.4133
v  -12.2740 0.6416 5.4133
v  -11.4433 0.4329 5.4133
v  -12.2740 0.4329 5.4133
v  -11.8429 0.5363 3.0705
v  -9.9049 0.5363 3.8732
v  -9.9049 0.2253 3.8732
v  -11.8429 0.2253 3.0705
v  -13.7810 0.2253 3.8732
v  -13.7810 0.5363 3.8732
v  -14.5837 0.5363 5.8112
v  -14.5837 0.2253 5.8112
v  -13.7810 0.2253 7.7493
v  -13.7810 0.5363 7.7493
v  -11.8429 0.5363 8.5520
v  -11.8429 0.2253 8.5520
v  -9.9049 0.2253 7.7493
v  -9.9049 0.5363 7.7493
v  -9.1022 0.2253 5.8112
v  -9.1022 0.5363 5.8112
v  -13.4693 0.4664 4.1849
v  -14.1429 0.4664 5.8112
v  -13.4693 0.4664 7.4376
v  -11.8429 0.4664 8.1112
v  -10.2166 0.4664 7.4376
v  -9.5430 0.4664 5.8112
v  -11.8429 0.4664 3.5113
v  -10.2166 0.4664 4.1849
v  -10.0732 0.5363 4.0415
v  -11.8429 0.5363 3.3084
v  -13.6127 0.5363 4.0415
v  -14.3458 0.5363 5.8112
v  -13.6127 0.5363 7.5810
v  -11.8429 0.5363 8.3141
v  -10.0732 0.5363 7.5810
v  -9.3401 0.5363 5.8112
# 502 vertices

vn 0.0000 1.0000 -0.0000
vn 0.6295 0.5694 -0.5287
vn 0.7613 0.1079 -0.6393
vn 0.9942 0.1079 -0.0000
vn 0.8220 0.5695 -0.0000
vn 0.1040 0.9907 -0.0873
vn 0.1357 0.9907 -0.0000
vn 0.1335 0.9911 -0.0000
vn 0.1022 0.9910 -0.0859
vn -0.2068 0.9784 -0.0000
vn -0.1584 0.9784 0.1330
vn 0.1036 0.9784 -0.1792
vn 0.1945 0.9783 -0.0708
vn -0.4996 0.0542 0.8645
vn -0.9384 0.0542 0.3414
vn -0.9130 -0.2370 0.3321
vn -0.4861 -0.2371 0.8411
vn 0.7647 0.0542 0.6421
vn 0.1728 0.0542 0.9835
vn 0.1682 -0.2371 0.9568
vn 0.7439 -0.2372 0.6247
vn 0.9714 -0.2373 -0.0000
vn 0.9985 0.0542 -0.0000
vn 0.7202 0.3400 0.6048
vn 0.9404 0.3400 0.0000
vn 0.1628 0.3399 0.9263
vn -0.4706 0.3398 0.8143
vn -0.8839 0.3397 0.3215
vn -0.1584 0.9784 -0.1330
vn -0.0358 0.9784 -0.2038
vn 0.0790 0.8899 0.4493
vn 0.3492 0.8899 0.2933
vn 0.1927 0.9678 0.1618
vn 0.0436 0.9678 0.2479
vn 0.2516 0.9678 -0.0000
vn 0.4560 0.8900 -0.0000
vn 0.4921 0.7662 0.4133
vn 0.6425 0.7663 -0.0000
vn 0.1112 0.7661 0.6330
vn -0.1260 0.9678 0.2180
vn -0.2367 0.9678 0.0861
vn -0.4289 0.8898 0.1560
vn -0.2283 0.8898 0.3951
vn -0.3217 0.7660 0.5566
vn -0.6042 0.7659 0.2198
vn 0.1945 0.9783 0.0708
vn 0.1036 0.9784 0.1792
vn -0.9384 0.0542 -0.3414
vn -0.4996 0.0542 -0.8645
vn -0.4861 -0.2371 -0.8411
vn -0.9130 -0.2370 -0.3321
vn -0.8839 0.3397 -0.3215
vn -0.4706 0.3398 -0.8143
vn -0.1260 0.9678 -0.2180
vn -0.2283 0.8898 -0.3951
vn -0.4289 0.8898 -0.1560
vn -0.2367 0.9678 -0.0861
vn -0.6042 0.7659 -0.2198
vn -0.3217 0.7660 -0.5566
vn 0.7439 -0.2372 -0.6247
vn 0.7647 0.0542 -0.6421
vn 0.1728 0.0542 -0.9835
vn 0.1682 -0.2371 -0.9568
vn 0.1628 0.3399 -0.9263
vn 0.7202 0.3400 -0.6048
vn -0.0358 0.9784 0.2038
vn 0.0436 0.9678 -0.2479
vn 0.0790 0.8899 -0.4493
vn 0.1112 0.7661 -0.6330
vn 0.3492 0.8899 -0.2933
vn 0.1927 0.9678 -0.1618
vn 0.4921 0.7662 -0.4133
vn -0.0680 0.9907 0.1176
vn -0.1277 0.9907 0.0464
vn -0.1256 0.9910 0.0457
vn -0.0669 0.9910 0.1157
vn -0.9381 -0.0597 0.3413
vn -0.4995 -0.0597 0.8643
vn -0.4989 -0.0760 0.8633
vn -0.9370 -0.0760 0.3409
vn 0.1728 -0.0597 0.9831
vn 0.7644 -0.0597 0.6419
vn 0.7636 -0.0761 0.6412
vn 0.1726 -0.0761 0.9820
vn 0.1212 -0.7140 0.6896
vn 0.1655 -0.2923 0.9419
vn 0.7323 -0.2923 0.6150
vn 0.5361 -0.7141 0.4502
vn 0.9563 -0.2924 -0.0000
vn 0.7000 -0.7142 -0.0000
vn 0.9971 -0.0761 -0.0000
vn 0.9982 -0.0597 -0.0000
vn -0.3504 -0.7139 0.6063
vn -0.6582 -0.7138 0.2394
vn -0.8987 -0.2922 0.3269
vn -0.4785 -0.2922 0.8280
vn 0.1040 0.9907 0.0873
vn 0.0235 0.9907 0.1338
vn 0.0231 0.9910 0.1315
vn 0.1022 0.9910 0.0859
vn 0.7489 0.2091 0.6289
vn 0.1693 0.2091 0.9631
vn 0.9779 0.2092 -0.0000
vn 0.7546 0.1703 0.6337
vn 0.9854 0.1703 -0.0000
vn 0.1706 0.1702 0.9705
vn -0.9190 0.2089 0.3343
vn -0.4893 0.2090 0.8467
vn -0.4931 0.1701 0.8532
vn -0.9261 0.1701 0.3369
vn 0.7644 -0.0597 -0.6419
vn 0.7636 -0.0761 -0.6412
vn -0.9381 -0.0597 -0.3413
vn -0.9370 -0.0760 -0.3409
vn -0.4989 -0.0760 -0.8633
vn -0.4995 -0.0597 -0.8643
vn -0.6582 -0.7138 -0.2394
vn -0.3504 -0.7139 -0.6063
vn -0.4785 -0.2922 -0.8280
vn -0.8987 -0.2922 -0.3269
vn 0.1728 -0.0597 -0.9831
vn 0.1726 -0.0761 -0.9820
vn 0.1655 -0.2923 -0.9419
vn 0.1212 -0.7140 -0.6896
vn 0.7323 -0.2923 -0.6150
vn 0.5361 -0.7141 -0.4502
vn -0.1256 0.9910 -0.0457
vn -0.1277 0.9907 -0.0464
vn -0.0680 0.9907 -0.1176
vn -0.0669 0.9910 -0.1157
vn -0.4893 0.2090 -0.8467
vn -0.9190 0.2089 -0.3343
vn -0.9261 0.1701 -0.3369
vn -0.4931 0.1701 -0.8532
vn 0.0231 0.9910 -0.1315
vn 0.0235 0.9907 -0.1338
vn 0.1693 0.2091 -0.9631
vn 0.1706 0.1702 -0.9705
vn 0.7489 0.2091 -0.6289
vn 0.7546 0.1703 -0.6337
vn -0.4125 0.8425 0.3464
vn -0.5386 0.8425 0.0000
vn -0.4938 0.8696 0.0000
vn -0.3782 0.8696 0.3176
vn 0.2697 0.8423 -0.4666
vn 0.5066 0.8423 -0.1843
vn 0.4644 0.8694 -0.1689
vn 0.2473 0.8694 -0.4278
vn -0.3848 0.6392 0.6658
vn -0.2388 0.8788 0.4131
vn -0.4484 0.8788 0.1631
vn -0.7228 0.6391 0.2629
vn 0.3652 0.8789 0.3067
vn 0.0826 0.8789 0.4698
vn 0.1331 0.6393 0.7573
vn 0.5887 0.6395 0.4944
vn 0.7688 0.6395 -0.0000
vn 0.4769 0.8790 -0.0000
vn -0.4125 0.8425 -0.3464
vn -0.0933 0.8424 -0.5307
vn -0.0855 0.8695 -0.4865
vn -0.3782 0.8696 -0.3176
vn -0.3035 0.9181 -0.2549
vn -0.3233 0.9065 -0.2716
vn -0.0731 0.9064 -0.4160
vn -0.0686 0.9181 -0.3905
vn -0.3963 0.9181 0.0000
vn -0.4222 0.9065 -0.0000
vn 0.3727 0.9180 -0.1356
vn 0.1984 0.9180 -0.3433
vn 0.2114 0.9064 -0.3658
vn 0.3971 0.9063 -0.1445
vn 0.5066 0.8423 0.1843
vn 0.2697 0.8423 0.4666
vn 0.2473 0.8694 0.4278
vn 0.4644 0.8694 0.1689
vn -0.7228 0.6391 -0.2629
vn -0.4484 0.8788 -0.1631
vn -0.2388 0.8788 -0.4131
vn -0.3848 0.6392 -0.6658
vn 0.2114 0.9064 0.3658
vn 0.1984 0.9180 0.3433
vn 0.3727 0.9180 0.1356
vn 0.3971 0.9063 0.1445
vn 0.5887 0.6395 -0.4944
vn 0.3652 0.8789 -0.3067
vn 0.1331 0.6393 -0.7573
vn 0.0826 0.8789 -0.4698
vn -0.0855 0.8695 0.4865
vn -0.0933 0.8424 0.5307
vn -0.0731 0.9064 0.4160
vn -0.0686 0.9181 0.3905
vn -0.3035 0.9181 0.2549
vn -0.3233 0.9065 0.2716
vn -0.4114 0.5692 0.7119
vn -0.4975 0.1078 0.8608
vn -0.9343 0.1078 0.3399
vn -0.7727 0.5691 0.2811
vn -0.4899 0.2039 0.8476
vn -0.4770 0.3022 0.8253
vn -0.8958 0.3021 0.3259
vn -0.9200 0.2038 0.3347
vn 0.7299 0.3023 0.6130
vn 0.1650 0.3023 0.9388
vn 0.1695 0.2039 0.9642
vn 0.7497 0.2040 0.6296
vn 0.7657 0.0133 0.6430
vn 0.7657 -0.0148 0.6430
vn 0.1731 -0.0148 0.9848
vn 0.1731 0.0133 0.9848
vn 0.9999 0.0133 -0.0000
vn 0.9999 -0.0148 -0.0000
vn 0.9790 0.2040 -0.0000
vn 0.9532 0.3024 -0.0000
vn -0.9397 0.0133 0.3418
vn -0.5003 0.0133 0.8657
vn -0.5003 -0.0148 0.8657
vn -0.9396 -0.0148 0.3418
vn 0.6295 0.5694 0.5287
vn 0.7613 0.1079 0.6393
vn 0.1721 0.1079 0.9792
vn 0.1423 0.5693 0.8097
vn 0.7360 -0.2762 0.6181
vn 0.1664 -0.2761 0.9466
vn 0.9611 -0.2763 -0.0000
vn -0.9033 -0.2760 0.3286
vn -0.4809 -0.2760 0.8322
vn 0.7299 0.3024 -0.6130
vn 0.7497 0.2040 -0.6296
vn -0.9200 0.2038 -0.3347
vn -0.8958 0.3021 -0.3259
vn -0.4770 0.3022 -0.8253
vn -0.4899 0.2039 -0.8476
vn -0.5003 -0.0148 -0.8657
vn -0.5003 0.0133 -0.8657
vn -0.9397 0.0133 -0.3418
vn -0.9396 -0.0148 -0.3418
vn 0.1695 0.2039 -0.9642
vn 0.1650 0.3023 -0.9388
vn 0.1731 0.0133 -0.9848
vn 0.1731 -0.0148 -0.9848
vn 0.7657 0.0133 -0.6430
vn 0.7657 -0.0148 -0.6430
vn -0.7727 0.5691 -0.2811
vn -0.9343 0.1078 -0.3399
vn -0.4975 0.1078 -0.8608
vn -0.4114 0.5692 -0.7119
vn -0.4809 -0.2760 -0.8322
vn -0.9033 -0.2760 -0.3286
vn 0.1423 0.5693 -0.8097
vn 0.1721 0.1079 -0.9792
vn 0.1664 -0.2761 -0.9466
vn 0.7360 -0.2762 -0.6181
vn 0.0000 0.0000 1.0000
vn 0.0000 0.0000 -1.0000
vn 1.0000 0.0000 -0.0000
vn -1.0000 0.0000 -0.0000
vn 0.3827 0.0000 -0.9239
vn -0.3827 0.0000 -0.9239
vn -0.9239 0.0000 -0.3827
vn -0.9239 0.0000 0.3827
vn -0.3827 0.0000 0.9239
vn 0.3827 0.0000 0.9239
vn 0.9239 0.0000 0.3827
vn 0.9239 0.0000 -0.3827
vn -0.2302 0.9455 0.2302
vn 0.0000 0.9455 0.3256
vn 0.2302 0.9455 0.2302
vn 0.3256 0.9455 -0.0000
vn 0.2302 0.9455 -0.2302
vn 0.0000 0.9455 -0.3256
vn -0.2302 0.9455 -0.2302
vn -0.3256 0.9455 -0.0000
vn -0.5386 0.8425 -0.0000
vn -0.4938 0.8696 -0.0000
vn -0.3963 0.9181 -0.0000
vn 0.7299 0.3024 0.6130
# 277 vertex normals

vt 0.3038 0.0159 0.0000
vt 0.3038 0.8698 0.0000
vt 0.0126 0.8698 0.0000
vt 0.0126 0.0159 0.0000
vt 0.3741 0.0159 0.0000
vt 0.3741 0.8698 0.0000
vt 0.6743 0.0159 0.0000
vt 0.6743 0.8698 0.0000
vt 0.9099 0.0122 0.0000
vt 0.9103 0.0369 0.0000
vt 0.8898 0.0369 0.0000
vt 0.8898 0.0122 0.0000
vt 0.8693 0.7868 0.0000
vt 0.8713 0.7759 0.0000
vt 0.8888 0.7729 0.0000
vt 0.8847 0.7957 0.0000
vt 0.8916 0.4699 0.0000
vt 0.9161 0.4558 0.0000
vt 0.9244 0.5034 0.0000
vt 0.8965 0.4984 0.0000
vt 0.8184 0.4697 0.0000
vt 0.8134 0.4982 0.0000
vt 0.7855 0.5030 0.0000
vt 0.7939 0.4555 0.0000
vt 0.8305 0.2250 0.0000
vt 0.8115 0.2250 0.0000
vt 0.8114 0.1819 0.0000
vt 0.8301 0.1819 0.0000
vt 0.8695 0.2250 0.0000
vt 0.8498 0.2250 0.0000
vt 0.8493 0.1819 0.0000
vt 0.8691 0.1819 0.0000
vt 0.8894 0.1819 0.0000
vt 0.8894 0.2250 0.0000
vt 0.8688 0.2692 0.0000
vt 0.8894 0.2692 0.0000
vt 0.8488 0.2692 0.0000
vt 0.8297 0.2692 0.0000
vt 0.8112 0.2692 0.0000
vt 0.8792 0.4247 0.0000
vt 0.8695 0.4513 0.0000
vt 0.8406 0.4512 0.0000
vt 0.8310 0.4246 0.0000
vt 0.8379 0.5855 0.0000
vt 0.8721 0.5853 0.0000
vt 0.8600 0.6189 0.0000
vt 0.8502 0.6189 0.0000
vt 0.8675 0.6251 0.0000
vt 0.8983 0.6072 0.0000
vt 0.8789 0.5664 0.0000
vt 0.9157 0.5971 0.0000
vt 0.8310 0.5665 0.0000
vt 0.8428 0.6252 0.0000
vt 0.8411 0.6348 0.0000
vt 0.8060 0.6411 0.0000
vt 0.8119 0.6075 0.0000
vt 0.7944 0.5974 0.0000
vt 0.7862 0.6446 0.0000
vt 0.8277 0.5232 0.0000
vt 0.8548 0.5331 0.0000
vt 0.8547 0.5615 0.0000
vt 0.8095 0.5448 0.0000
vt 0.7927 0.2250 0.0000
vt 0.7737 0.2250 0.0000
vt 0.7741 0.1819 0.0000
vt 0.7928 0.1819 0.0000
vt 0.7930 0.2692 0.0000
vt 0.7745 0.2692 0.0000
vt 0.8552 0.6466 0.0000
vt 0.8553 0.6822 0.0000
vt 0.8232 0.6706 0.0000
vt 0.8460 0.6432 0.0000
vt 0.8103 0.6860 0.0000
vt 0.8553 0.7023 0.0000
vt 0.9097 0.1819 0.0000
vt 0.9094 0.2250 0.0000
vt 0.9488 0.1819 0.0000
vt 0.9484 0.2250 0.0000
vt 0.9291 0.2250 0.0000
vt 0.9295 0.1819 0.0000
vt 0.9492 0.2692 0.0000
vt 0.9301 0.2692 0.0000
vt 0.9101 0.2692 0.0000
vt 0.8820 0.5233 0.0000
vt 0.9001 0.5451 0.0000
vt 0.8643 0.6432 0.0000
vt 0.8873 0.6704 0.0000
vt 0.9003 0.6858 0.0000
vt 0.9043 0.6408 0.0000
vt 0.8692 0.6347 0.0000
vt 0.9242 0.6443 0.0000
vt 0.8450 0.7663 0.0000
vt 0.8395 0.7758 0.0000
vt 0.8220 0.7727 0.0000
vt 0.8336 0.7526 0.0000
vt 0.8172 0.0848 0.0000
vt 0.8334 0.0848 0.0000
vt 0.8342 0.1198 0.0000
vt 0.8174 0.1198 0.0000
vt 0.8505 0.0848 0.0000
vt 0.8685 0.0848 0.0000
vt 0.8691 0.1198 0.0000
vt 0.8514 0.1198 0.0000
vt 0.8518 0.1729 0.0000
vt 0.8511 0.1495 0.0000
vt 0.8689 0.1495 0.0000
vt 0.8694 0.1729 0.0000
vt 0.8873 0.1495 0.0000
vt 0.8873 0.1729 0.0000
vt 0.8873 0.1198 0.0000
vt 0.8873 0.0848 0.0000
vt 0.8345 0.1729 0.0000
vt 0.8176 0.1729 0.0000
vt 0.8173 0.1495 0.0000
vt 0.8339 0.1495 0.0000
vt 0.8658 0.7663 0.0000
vt 0.8554 0.7625 0.0000
vt 0.8555 0.7448 0.0000
vt 0.8772 0.7528 0.0000
vt 0.8690 0.0469 0.0000
vt 0.8512 0.0469 0.0000
vt 0.8873 0.0469 0.0000
vt 0.8692 0.0193 0.0000
vt 0.8873 0.0193 0.0000
vt 0.8514 0.0193 0.0000
vt 0.8174 0.0469 0.0000
vt 0.8340 0.0469 0.0000
vt 0.8342 0.0193 0.0000
vt 0.8174 0.0193 0.0000
vt 0.9061 0.0848 0.0000
vt 0.9055 0.1198 0.0000
vt 0.8011 0.0848 0.0000
vt 0.8008 0.1198 0.0000
vt 0.7841 0.1198 0.0000
vt 0.7848 0.0848 0.0000
vt 0.8007 0.1729 0.0000
vt 0.7837 0.1729 0.0000
vt 0.7843 0.1495 0.0000
vt 0.8009 0.1495 0.0000
vt 0.9242 0.0848 0.0000
vt 0.9412 0.0848 0.0000
vt 0.9404 0.1198 0.0000
vt 0.9232 0.1198 0.0000
vt 0.9236 0.1495 0.0000
vt 0.9407 0.1495 0.0000
vt 0.9401 0.1729 0.0000
vt 0.9228 0.1729 0.0000
vt 0.9057 0.1495 0.0000
vt 0.9052 0.1729 0.0000
vt 0.8260 0.7955 0.0000
vt 0.8414 0.7867 0.0000
vt 0.8498 0.7938 0.0000
vt 0.8437 0.8105 0.0000
vt 0.7842 0.0469 0.0000
vt 0.8009 0.0469 0.0000
vt 0.8008 0.0193 0.0000
vt 0.7841 0.0193 0.0000
vt 0.8669 0.8106 0.0000
vt 0.8608 0.7938 0.0000
vt 0.9234 0.0469 0.0000
vt 0.9406 0.0469 0.0000
vt 0.9232 0.0193 0.0000
vt 0.9404 0.0193 0.0000
vt 0.9056 0.0469 0.0000
vt 0.9055 0.0193 0.0000
vt 0.8656 0.9420 0.0000
vt 0.8754 0.9333 0.0000
vt 0.8897 0.9410 0.0000
vt 0.8717 0.9570 0.0000
vt 0.8580 0.9052 0.0000
vt 0.8459 0.9100 0.0000
vt 0.8351 0.8979 0.0000
vt 0.8575 0.8890 0.0000
vt 0.8105 0.7249 0.0000
vt 0.8151 0.7304 0.0000
vt 0.7935 0.7676 0.0000
vt 0.7864 0.7663 0.0000
vt 0.8959 0.7306 0.0000
vt 0.8556 0.7158 0.0000
vt 0.8556 0.7086 0.0000
vt 0.9006 0.7251 0.0000
vt 0.9244 0.7667 0.0000
vt 0.9173 0.7680 0.0000
vt 0.8772 0.9204 0.0000
vt 0.8704 0.9093 0.0000
vt 0.8804 0.8965 0.0000
vt 0.8931 0.9171 0.0000
vt 0.9321 0.9090 0.0000
vt 0.9110 0.9133 0.0000
vt 0.8917 0.8822 0.0000
vt 0.9050 0.8653 0.0000
vt 0.9247 0.9598 0.0000
vt 0.9057 0.9496 0.0000
vt 0.8086 0.8683 0.0000
vt 0.8563 0.8493 0.0000
vt 0.8569 0.8708 0.0000
vt 0.8230 0.8843 0.0000
vt 0.8397 0.9215 0.0000
vt 0.8424 0.9343 0.0000
vt 0.8286 0.9428 0.0000
vt 0.8237 0.9192 0.0000
vt 0.7946 0.8135 0.0000
vt 0.8009 0.8099 0.0000
vt 0.8337 0.8376 0.0000
vt 0.8312 0.8444 0.0000
vt 0.8131 0.9524 0.0000
vt 0.7948 0.9637 0.0000
vt 0.7843 0.9135 0.0000
vt 0.8056 0.9166 0.0000
vt 0.9159 0.8139 0.0000
vt 0.9097 0.8103 0.0000
vt 0.8791 0.8446 0.0000
vt 0.8767 0.8378 0.0000
vt 0.8475 0.9578 0.0000
vt 0.8526 0.9423 0.0000
vt 0.8418 0.9751 0.0000
vt 0.8319 0.9940 0.0000
vt 0.8864 0.9940 0.0000
vt 0.8784 0.9740 0.0000
vt 0.8306 0.0122 0.0000
vt 0.8301 0.0369 0.0000
vt 0.8113 0.0369 0.0000
vt 0.8115 0.0122 0.0000
vt 0.8305 0.0923 0.0000
vt 0.8301 0.1149 0.0000
vt 0.8113 0.1149 0.0000
vt 0.8115 0.0923 0.0000
vt 0.8694 0.1149 0.0000
vt 0.8495 0.1149 0.0000
vt 0.8499 0.0923 0.0000
vt 0.8697 0.0923 0.0000
vt 0.8694 0.1461 0.0000
vt 0.8694 0.1770 0.0000
vt 0.8494 0.1770 0.0000
vt 0.8494 0.1461 0.0000
vt 0.8898 0.1461 0.0000
vt 0.8898 0.1770 0.0000
vt 0.8898 0.0923 0.0000
vt 0.8898 0.1149 0.0000
vt 0.8113 0.1461 0.0000
vt 0.8301 0.1461 0.0000
vt 0.8301 0.1770 0.0000
vt 0.8113 0.1770 0.0000
vt 0.8698 0.0122 0.0000
vt 0.8694 0.0369 0.0000
vt 0.8494 0.0369 0.0000
vt 0.8500 0.0122 0.0000
vt 0.8697 0.0624 0.0000
vt 0.8498 0.0624 0.0000
vt 0.8898 0.0624 0.0000
vt 0.8115 0.0624 0.0000
vt 0.8304 0.0624 0.0000
vt 0.9103 0.1149 0.0000
vt 0.9099 0.0923 0.0000
vt 0.7926 0.0923 0.0000
vt 0.7927 0.1149 0.0000
vt 0.7739 0.1149 0.0000
vt 0.7735 0.0923 0.0000
vt 0.7740 0.1770 0.0000
vt 0.7740 0.1461 0.0000
vt 0.7927 0.1461 0.0000
vt 0.7927 0.1770 0.0000
vt 0.9298 0.0923 0.0000
vt 0.9491 0.0923 0.0000
vt 0.9495 0.1149 0.0000
vt 0.9302 0.1149 0.0000
vt 0.9303 0.1461 0.0000
vt 0.9496 0.1461 0.0000
vt 0.9496 0.1770 0.0000
vt 0.9303 0.1770 0.0000
vt 0.9103 0.1461 0.0000
vt 0.9103 0.1770 0.0000
vt 0.7926 0.0122 0.0000
vt 0.7927 0.0369 0.0000
vt 0.7740 0.0369 0.0000
vt 0.7735 0.0122 0.0000
vt 0.7736 0.0624 0.0000
vt 0.7926 0.0624 0.0000
vt 0.9297 0.0122 0.0000
vt 0.9491 0.0122 0.0000
vt 0.9496 0.0369 0.0000
vt 0.9303 0.0369 0.0000
vt 0.9299 0.0624 0.0000
vt 0.9492 0.0624 0.0000
vt 0.9100 0.0624 0.0000
vt 0.7099 0.9933 0.0000
vt 0.6808 0.9933 0.0000
vt 0.6808 0.8775 0.0000
vt 0.7099 0.8775 0.0000
vt 0.5625 0.8775 0.0000
vt 0.6703 0.8775 0.0000
vt 0.6703 0.9933 0.0000
vt 0.5625 0.9933 0.0000
vt 0.7200 0.8803 0.0000
vt 0.7491 0.8803 0.0000
vt 0.7491 0.9881 0.0000
vt 0.7200 0.9881 0.0000
vt 0.5458 0.9404 0.0000
vt 0.4794 0.9404 0.0000
vt 0.4794 0.9264 0.0000
vt 0.5458 0.9264 0.0000
vt 0.0143 0.9404 0.0000
vt 0.0143 0.9264 0.0000
vt 0.0808 0.9264 0.0000
vt 0.0808 0.9404 0.0000
vt 0.1472 0.9264 0.0000
vt 0.1472 0.9404 0.0000
vt 0.2136 0.9404 0.0000
vt 0.2136 0.9264 0.0000
vt 0.2801 0.9404 0.0000
vt 0.2801 0.9264 0.0000
vt 0.3465 0.9264 0.0000
vt 0.3465 0.9404 0.0000
vt 0.4129 0.9264 0.0000
vt 0.4129 0.9404 0.0000
vt 0.8540 0.4098 0.0000
vt 0.8104 0.3918 0.0000
vt 0.7923 0.3481 0.0000
vt 0.8104 0.3045 0.0000
vt 0.8540 0.2864 0.0000
vt 0.8976 0.3045 0.0000
vt 0.9157 0.3481 0.0000
vt 0.8976 0.3918 0.0000
vt 0.9015 0.3956 0.0000
vt 0.9060 0.4001 0.0000
vt 0.8540 0.4217 0.0000
vt 0.8540 0.4153 0.0000
vt 0.8020 0.4001 0.0000
vt 0.8065 0.3956 0.0000
vt 0.7805 0.3481 0.0000
vt 0.7869 0.3481 0.0000
vt 0.8020 0.2961 0.0000
vt 0.8065 0.3007 0.0000
vt 0.8540 0.2810 0.0000
vt 0.8540 0.2746 0.0000
vt 0.9015 0.3007 0.0000
vt 0.9060 0.2961 0.0000
vt 0.9212 0.3481 0.0000
vt 0.9275 0.3481 0.0000
# 339 texture coords

o Ground_and_Fountain
g Ground_and_Fountain
f 1/1/1 2/2/1 3/3/1 
f 3/3/1 4/4/1 1/1/1 
f 1/1/1 5/5/1 6/6/1 
f 6/6/1 2/2/1 1/1/1 
f 7/7/1 8/8/1 6/6/1 
f 6/6/1 5/5/1 7/7/1 
f 9/9/2 10/10/3 11/11/4 
f 11/11/4 12/12/5 9/9/2 
f 13/13/6 14/14/7 15/15/8 
f 15/15/8 16/16/9 13/13/6 
f 17/17/10 18/18/10 19/19/11 
f 19/19/11 20/20/11 17/17/10 
f 21/21/12 22/22/13 23/23/13 
f 23/23/13 24/24/12 21/21/12 
f 25/25/14 26/26/15 27/27/16 
f 27/27/16 28/28/17 25/25/14 
f 29/29/18 30/30/19 31/31/20 
f 31/31/20 32/32/21 29/29/18 
f 33/33/22 34/34/23 29/29/18 
f 29/29/18 32/32/21 33/33/22 
f 35/35/24 29/29/18 34/34/23 
f 34/34/23 36/36/25 35/35/24 
f 29/29/18 35/35/24 37/37/26 
f 37/37/26 30/30/19 29/29/18 
f 31/31/20 30/30/19 25/25/14 
f 25/25/14 28/28/17 31/31/20 
f 38/38/27 25/25/14 30/30/19 
f 30/30/19 37/37/26 38/38/27 
f 26/26/15 25/25/14 38/38/27 
f 38/38/27 39/39/28 26/26/15 
f 40/40/29 41/41/29 42/42/30 
f 42/42/30 43/43/30 40/40/29 
f 44/44/31 45/45/32 32/46/33 
f 32/46/33 31/47/34 44/44/31 
f 33/48/35 32/46/33 45/45/32 
f 45/45/32 46/49/36 33/48/35 
f 41/41/29 40/40/29 18/18/10 
f 18/18/10 17/17/10 41/41/29 
f 40/50/37 18/51/38 46/49/36 
f 46/49/36 45/45/32 40/50/37 
f 40/50/37 45/45/32 44/44/31 
f 44/44/31 43/52/39 40/50/37 
f 28/53/40 27/54/41 47/55/42 
f 47/55/42 48/56/43 28/53/40 
f 44/44/31 31/47/34 28/53/40 
f 28/53/40 48/56/43 44/44/31 
f 42/42/30 21/21/12 24/24/12 
f 24/24/12 43/43/30 42/42/30 
f 43/52/39 44/44/31 48/56/43 
f 48/56/43 24/57/44 43/52/39 
f 23/58/45 24/57/44 48/56/43 
f 48/56/43 47/55/42 23/58/45 
f 49/59/46 50/60/47 51/61/47 
f 51/61/47 52/62/46 49/59/46 
f 53/63/48 54/64/49 55/65/50 
f 55/65/50 56/66/51 53/63/48 
f 56/66/51 27/27/16 26/26/15 
f 26/26/15 53/63/48 56/66/51 
f 53/63/48 26/26/15 39/39/28 
f 39/39/28 57/67/52 53/63/48 
f 53/63/48 57/67/52 58/68/53 
f 58/68/53 54/64/49 53/63/48 
f 55/69/54 59/70/55 60/71/56 
f 60/71/56 56/72/57 55/69/54 
f 27/54/41 56/72/57 60/71/56 
f 60/71/56 47/55/42 27/54/41 
f 49/59/46 52/62/46 23/23/13 
f 23/23/13 22/22/13 49/59/46 
f 23/58/45 47/55/42 60/71/56 
f 60/71/56 52/73/58 23/58/45 
f 51/74/59 52/73/58 60/71/56 
f 60/71/56 59/70/55 51/74/59 
f 34/34/23 33/33/22 61/75/60 
f 61/75/60 62/76/61 34/34/23 
f 55/77/50 54/78/49 63/79/62 
f 63/79/62 64/80/63 55/77/50 
f 58/81/53 65/82/64 63/79/62 
f 63/79/62 54/78/49 58/81/53 
f 64/80/63 63/79/62 62/76/61 
f 62/76/61 61/75/60 64/80/63 
f 63/79/62 65/82/64 66/83/65 
f 66/83/65 62/76/61 63/79/62 
f 36/36/25 34/34/23 62/76/61 
f 62/76/61 66/83/65 36/36/25 
f 51/61/47 50/60/47 67/84/66 
f 67/84/66 68/85/66 51/61/47 
f 55/69/54 64/86/67 69/87/68 
f 69/87/68 59/70/55 55/69/54 
f 59/70/55 69/87/68 68/88/69 
f 68/88/69 51/74/59 59/70/55 
f 70/89/70 61/90/71 33/48/35 
f 33/48/35 46/49/36 70/89/70 
f 70/89/70 69/87/68 64/86/67 
f 64/86/67 61/90/71 70/89/70 
f 68/85/66 67/84/66 20/20/11 
f 20/20/11 19/19/11 68/85/66 
f 70/89/70 19/91/72 68/88/69 
f 68/88/69 69/87/68 70/89/70 
f 18/51/38 19/91/72 70/89/70 
f 70/89/70 46/49/36 18/51/38 
f 71/92/73 72/93/74 73/94/75 
f 73/94/75 74/95/76 71/92/73 
f 75/96/77 76/97/78 77/98/79 
f 77/98/79 78/99/80 75/96/77 
f 79/100/81 80/101/82 81/102/83 
f 81/102/83 82/103/84 79/100/81 
f 42/104/85 83/105/86 84/106/87 
f 84/106/87 41/107/88 42/104/85 
f 84/106/87 85/108/89 17/109/90 
f 17/109/90 41/107/88 84/106/87 
f 86/110/91 81/102/83 80/101/82 
f 80/101/82 87/111/92 86/110/91 
f 81/102/83 86/110/91 85/108/89 
f 85/108/89 84/106/87 81/102/83 
f 82/103/84 81/102/83 84/106/87 
f 84/106/87 83/105/86 82/103/84 
f 21/112/93 22/113/94 88/114/95 
f 88/114/95 89/115/96 21/112/93 
f 21/112/93 89/115/96 83/105/86 
f 83/105/86 42/104/85 21/112/93 
f 82/103/84 77/98/79 76/97/78 
f 76/97/78 79/100/81 82/103/84 
f 82/103/84 83/105/86 89/115/96 
f 89/115/96 77/98/79 82/103/84 
f 77/98/79 89/115/96 88/114/95 
f 88/114/95 78/99/80 77/98/79 
f 90/116/97 91/117/98 92/118/99 
f 92/118/99 93/119/100 90/116/97 
f 94/120/101 80/101/82 79/100/81 
f 79/100/81 95/121/102 94/120/101 
f 96/122/103 87/111/92 80/101/82 
f 80/101/82 94/120/101 96/122/103 
f 93/119/100 15/15/8 14/14/7 
f 14/14/7 90/116/97 93/119/100 
f 96/122/103 94/120/101 90/123/104 
f 90/123/104 14/124/105 96/122/103 
f 90/123/104 94/120/101 95/121/102 
f 95/121/102 91/125/106 90/123/104 
f 76/97/78 75/96/77 97/126/107 
f 97/126/107 98/127/108 76/97/78 
f 95/121/102 79/100/81 76/97/78 
f 76/97/78 98/127/108 95/121/102 
f 92/118/99 91/117/98 71/92/73 
f 71/92/73 74/95/76 92/118/99 
f 91/125/106 95/121/102 98/127/108 
f 98/127/108 71/128/109 91/125/106 
f 71/128/109 98/127/108 97/126/107 
f 97/126/107 72/129/110 71/128/109 
f 87/111/92 99/130/111 100/131/112 
f 100/131/112 86/110/91 87/111/92 
f 101/132/113 102/133/114 103/134/115 
f 103/134/115 104/135/116 101/132/113 
f 49/136/117 50/137/118 105/138/119 
f 105/138/119 106/139/120 49/136/117 
f 49/136/117 106/139/120 88/114/95 
f 88/114/95 22/113/94 49/136/117 
f 78/99/80 102/133/114 101/132/113 
f 101/132/113 75/96/77 78/99/80 
f 102/133/114 78/99/80 88/114/95 
f 88/114/95 106/139/120 102/133/114 
f 102/133/114 106/139/120 105/138/119 
f 105/138/119 103/134/115 102/133/114 
f 107/140/121 104/141/116 103/142/115 
f 103/142/115 108/143/122 107/140/121 
f 109/144/123 105/145/119 50/146/118 
f 50/146/118 67/147/124 109/144/123 
f 108/143/122 103/142/115 105/145/119 
f 105/145/119 109/144/123 108/143/122 
f 17/109/90 85/108/89 110/148/125 
f 110/148/125 20/149/126 17/109/90 
f 110/148/125 109/144/123 67/147/124 
f 67/147/124 20/149/126 110/148/125 
f 99/130/111 107/140/121 108/143/122 
f 108/143/122 100/131/112 99/130/111 
f 109/144/123 110/148/125 100/131/112 
f 100/131/112 108/143/122 109/144/123 
f 100/131/112 110/148/125 85/108/89 
f 85/108/89 86/110/91 100/131/112 
f 111/150/127 112/151/128 113/152/129 
f 113/152/129 114/153/130 111/150/127 
f 101/132/113 104/135/116 115/154/131 
f 115/154/131 116/155/132 101/132/113 
f 97/126/107 75/96/77 101/132/113 
f 101/132/113 116/155/132 97/126/107 
f 72/93/74 112/151/128 111/150/127 
f 111/150/127 73/94/75 72/93/74 
f 116/155/132 112/156/133 72/129/110 
f 72/129/110 97/126/107 116/155/132 
f 112/156/133 116/155/132 115/154/131 
f 115/154/131 113/157/134 112/156/133 
f 117/158/135 114/153/130 113/152/129 
f 113/152/129 118/159/136 117/158/135 
f 104/141/116 107/140/121 119/160/137 
f 119/160/137 115/161/131 104/141/116 
f 118/162/138 113/163/134 115/161/131 
f 115/161/131 119/160/137 118/162/138 
f 96/122/103 120/164/139 99/130/111 
f 99/130/111 87/111/92 96/122/103 
f 120/164/139 119/160/137 107/140/121 
f 107/140/121 99/130/111 120/164/139 
f 16/16/9 117/158/135 118/159/136 
f 118/159/136 13/13/6 16/16/9 
f 119/160/137 120/164/139 13/165/140 
f 13/165/140 118/162/138 119/160/137 
f 13/165/140 120/164/139 96/122/103 
f 96/122/103 14/124/105 13/165/140 
f 121/166/141 122/167/142 123/168/143 
f 123/168/143 124/169/144 121/166/141 
f 125/170/145 126/171/146 127/172/147 
f 127/172/147 128/173/148 125/170/145 
f 129/174/149 130/175/150 131/176/151 
f 131/176/151 132/177/152 129/174/149 
f 133/178/153 134/179/154 135/180/155 
f 135/180/155 136/181/156 133/178/153 
f 136/181/156 137/182/157 138/183/158 
f 138/183/158 133/178/153 136/181/156 
f 133/178/153 138/183/158 15/15/8 
f 15/15/8 93/119/100 133/178/153 
f 93/119/100 92/118/99 134/179/154 
f 134/179/154 133/178/153 93/119/100 
f 129/174/149 135/180/155 134/179/154 
f 134/179/154 130/175/150 129/174/149 
f 130/175/150 134/179/154 92/118/99 
f 92/118/99 74/95/76 130/175/150 
f 130/175/150 74/95/76 73/94/75 
f 73/94/75 131/176/151 130/175/150 
f 139/184/159 140/185/160 141/186/161 
f 141/186/161 142/187/162 139/184/159 
f 136/188/163 143/189/164 144/190/165 
f 144/190/165 135/191/166 136/188/163 
f 143/189/164 136/188/163 137/192/167 
f 137/192/167 145/193/168 143/189/164 
f 139/184/159 142/187/162 123/168/143 
f 123/168/143 122/167/142 139/184/159 
f 142/187/162 143/189/164 145/193/168 
f 145/193/168 123/168/143 142/187/162 
f 144/190/165 143/189/164 142/187/162 
f 142/187/162 141/186/161 144/190/165 
f 132/194/169 129/195/170 146/196/171 
f 146/196/171 147/197/172 132/194/169 
f 129/195/170 135/191/166 144/190/165 
f 144/190/165 146/196/171 129/195/170 
f 128/173/148 141/186/161 140/185/160 
f 140/185/160 125/170/145 128/173/148 
f 144/190/165 141/186/161 128/173/148 
f 128/173/148 146/196/171 144/190/165 
f 147/197/172 146/196/171 128/173/148 
f 128/173/148 127/172/147 147/197/172 
f 148/198/173 149/199/174 150/200/175 
f 150/200/175 151/201/176 148/198/173 
f 152/202/177 153/203/178 154/204/179 
f 154/204/179 155/205/180 152/202/177 
f 131/176/151 153/203/178 152/202/177 
f 152/202/177 132/177/152 131/176/151 
f 111/150/127 153/203/178 131/176/151 
f 131/176/151 73/94/75 111/150/127 
f 154/204/179 153/203/178 111/150/127 
f 111/150/127 114/153/130 154/204/179 
f 156/206/181 155/207/182 152/208/183 
f 152/208/183 157/209/184 156/206/181 
f 147/197/172 157/209/184 152/208/183 
f 152/208/183 132/194/169 147/197/172 
f 126/171/146 148/198/173 151/201/176 
f 151/201/176 127/172/147 126/171/146 
f 147/197/172 127/172/147 151/201/176 
f 151/201/176 157/209/184 147/197/172 
f 156/206/181 157/209/184 151/201/176 
f 151/201/176 150/200/175 156/206/181 
f 158/210/185 159/211/186 138/183/158 
f 138/183/158 137/182/157 158/210/185 
f 160/212/187 155/205/180 154/204/179 
f 154/204/179 161/213/188 160/212/187 
f 117/158/135 161/213/188 154/204/179 
f 154/204/179 114/153/130 117/158/135 
f 161/213/188 159/211/186 158/210/185 
f 158/210/185 160/212/187 161/213/188 
f 161/213/188 117/158/135 16/16/9 
f 16/16/9 159/211/186 161/213/188 
f 16/16/9 15/15/8 138/183/158 
f 138/183/158 159/211/186 16/16/9 
f 162/214/189 150/200/175 149/199/174 
f 149/199/174 163/215/190 162/214/189 
f 155/207/182 156/206/181 164/216/191 
f 164/216/191 160/217/192 155/207/182 
f 162/214/189 164/216/191 156/206/181 
f 156/206/181 150/200/175 162/214/189 
f 145/193/168 137/192/167 158/218/193 
f 158/218/193 165/219/194 145/193/168 
f 158/218/193 160/217/192 164/216/191 
f 164/216/191 165/219/194 158/218/193 
f 121/166/141 124/169/144 162/214/189 
f 162/214/189 163/215/190 121/166/141 
f 162/214/189 124/169/144 165/219/194 
f 165/219/194 164/216/191 162/214/189 
f 165/219/194 124/169/144 123/168/143 
f 123/168/143 145/193/168 165/219/194 
f 166/220/195 167/221/196 168/222/197 
f 168/222/197 169/223/198 166/220/195 
f 170/224/199 171/225/200 172/226/201 
f 172/226/201 173/227/202 170/224/199 
f 174/228/203 175/229/204 176/230/205 
f 176/230/205 177/231/206 174/228/203 
f 178/232/207 139/233/208 140/234/209 
f 140/234/209 179/235/210 178/232/207 
f 178/232/207 180/236/211 122/237/212 
f 122/237/212 139/233/208 178/232/207 
f 181/238/213 182/239/214 174/228/203 
f 174/228/203 177/231/206 181/238/213 
f 178/232/207 174/228/203 182/239/214 
f 182/239/214 180/236/211 178/232/207 
f 178/232/207 179/235/210 175/229/204 
f 175/229/204 174/228/203 178/232/207 
f 183/240/215 184/241/216 125/242/217 
f 125/242/217 126/243/218 183/240/215 
f 184/241/216 179/235/210 140/234/209 
f 140/234/209 125/242/217 184/241/216 
f 170/224/199 176/230/205 175/229/204 
f 175/229/204 171/225/200 170/224/199 
f 184/241/216 171/225/200 175/229/204 
f 175/229/204 179/235/210 184/241/216 
f 171/225/200 184/241/216 183/240/215 
f 183/240/215 172/226/201 171/225/200 
f 185/244/219 186/245/220 187/246/221 
f 187/246/221 188/247/222 185/244/219 
f 189/248/223 177/231/206 176/230/205 
f 176/230/205 190/249/224 189/248/223 
f 191/250/225 181/238/213 177/231/206 
f 177/231/206 189/248/223 191/250/225 
f 11/11/4 186/245/220 185/244/219 
f 185/244/219 12/12/5 11/11/4 
f 11/11/4 191/250/225 189/248/223 
f 189/248/223 186/245/220 11/11/4 
f 186/245/220 189/248/223 190/249/224 
f 190/249/224 187/246/221 186/245/220 
f 170/224/199 173/227/202 192/251/226 
f 192/251/226 193/252/227 170/224/199 
f 190/249/224 176/230/205 170/224/199 
f 170/224/199 193/252/227 190/249/224 
f 166/220/195 188/247/222 187/246/221 
f 187/246/221 167/221/196 166/220/195 
f 187/246/221 190/249/224 193/252/227 
f 193/252/227 167/221/196 187/246/221 
f 167/221/196 193/252/227 192/251/226 
f 192/251/226 168/222/197 167/221/196 
f 194/253/228 182/239/214 181/238/213 
f 181/238/213 195/254/229 194/253/228 
f 196/255/230 197/256/231 198/257/232 
f 198/257/232 199/258/233 196/255/230 
f 149/259/234 200/260/235 201/261/236 
f 201/261/236 148/262/237 149/259/234 
f 201/261/236 183/240/215 126/243/218 
f 126/243/218 148/262/237 201/261/236 
f 172/226/201 197/256/231 196/255/230 
f 196/255/230 173/227/202 172/226/201 
f 201/261/236 197/256/231 172/226/201 
f 172/226/201 183/240/215 201/261/236 
f 197/256/231 201/261/236 200/260/235 
f 200/260/235 198/257/232 197/256/231 
f 202/263/238 199/264/233 198/265/232 
f 198/265/232 203/266/239 202/263/238 
f 204/267/240 200/268/235 149/269/234 
f 149/269/234 163/270/241 204/267/240 
f 203/266/239 198/265/232 200/268/235 
f 200/268/235 204/267/240 203/266/239 
f 122/237/212 180/236/211 205/271/242 
f 205/271/242 121/272/243 122/237/212 
f 204/267/240 163/270/241 121/272/243 
f 121/272/243 205/271/242 204/267/240 
f 195/254/229 202/263/238 203/266/239 
f 203/266/239 194/253/228 195/254/229 
f 204/267/240 205/271/242 194/253/228 
f 194/253/228 203/266/239 204/267/240 
f 205/271/242 180/236/211 182/239/214 
f 182/239/214 194/253/228 205/271/242 
f 206/273/244 207/274/245 208/275/246 
f 208/275/246 209/276/247 206/273/244 
f 196/255/230 199/258/233 210/277/248 
f 210/277/248 211/278/249 196/255/230 
f 211/278/249 192/251/226 173/227/202 
f 173/227/202 196/255/230 211/278/249 
f 206/273/244 169/223/198 168/222/197 
f 168/222/197 207/274/245 206/273/244 
f 211/278/249 207/274/245 168/222/197 
f 168/222/197 192/251/226 211/278/249 
f 207/274/245 211/278/249 210/277/248 
f 210/277/248 208/275/246 207/274/245 
f 212/279/250 209/280/247 208/281/246 
f 208/281/246 213/282/251 212/279/250 
f 199/264/233 202/263/238 214/283/252 
f 214/283/252 210/284/248 199/264/233 
f 213/282/251 208/281/246 210/284/248 
f 210/284/248 214/283/252 213/282/251 
f 181/238/213 191/250/225 215/285/253 
f 215/285/253 195/254/229 181/238/213 
f 214/283/252 202/263/238 195/254/229 
f 195/254/229 215/285/253 214/283/252 
f 9/9/2 212/279/250 213/282/251 
f 213/282/251 10/10/3 9/9/2 
f 214/283/252 215/285/253 10/10/3 
f 10/10/3 213/282/251 214/283/252 
f 10/10/3 215/285/253 191/250/225 
f 191/250/225 11/11/4 10/10/3 
f 216/286/254 217/287/254 218/288/254 
f 218/288/254 219/289/254 216/286/254 
f 219/290/1 220/291/1 221/292/1 
f 221/292/1 216/293/1 219/290/1 
f 222/286/255 221/287/255 220/288/255 
f 220/288/255 223/289/255 222/286/255 
f 223/294/256 220/295/256 219/296/256 
f 219/296/256 218/297/256 223/294/256 
f 217/294/257 216/295/257 221/296/257 
f 221/296/257 222/297/257 217/294/257 
f 224/298/258 225/299/258 226/300/258 
f 226/300/258 227/301/258 224/298/258 
f 224/302/259 227/303/259 228/304/259 
f 228/304/259 229/305/259 224/302/259 
f 229/305/260 228/304/260 230/306/260 
f 230/306/260 231/307/260 229/305/260 
f 232/308/261 231/307/261 230/306/261 
f 230/306/261 233/309/261 232/308/261 
f 234/310/262 232/308/262 233/309/262 
f 233/309/262 235/311/262 234/310/262 
f 234/310/263 235/311/263 236/312/263 
f 236/312/263 237/313/263 234/310/263 
f 237/313/264 236/312/264 238/314/264 
f 238/314/264 239/315/264 237/313/264 
f 239/315/265 238/314/265 226/300/265 
f 226/300/265 225/299/265 239/315/265 
f 240/316/1 241/317/1 242/318/1 
f 242/318/1 243/319/1 244/320/1 
f 244/320/1 245/321/1 246/322/1 
f 242/318/1 244/320/1 246/322/1 
f 240/316/1 242/318/1 246/322/1 
f 247/323/1 240/316/1 246/322/1 
f 248/324/1 225/325/1 224/326/1 
f 224/326/1 249/327/1 248/324/1 
f 249/327/1 224/326/1 229/328/1 
f 229/328/1 250/329/1 249/327/1 
f 250/329/1 229/328/1 231/330/1 
f 231/330/1 251/331/1 250/329/1 
f 251/331/1 231/330/1 232/332/1 
f 232/332/1 252/333/1 251/331/1 
f 253/334/1 252/333/1 232/332/1 
f 232/332/1 234/335/1 253/334/1 
f 254/336/1 253/334/1 234/335/1 
f 234/335/1 237/337/1 254/336/1 
f 255/338/1 254/336/1 237/337/1 
f 237/337/1 239/339/1 255/338/1 
f 255/338/1 239/339/1 225/325/1 
f 225/325/1 248/324/1 255/338/1 
f 247/323/266 248/324/266 249/327/267 
f 249/327/267 240/316/267 247/323/266 
f 241/317/268 240/316/267 249/327/267 
f 249/327/267 250/329/268 241/317/268 
f 242/318/269 241/317/268 250/329/268 
f 250/329/268 251/331/269 242/318/269 
f 242/318/269 251/331/269 252/333/270 
f 252/333/270 243/319/270 242/318/269 
f 244/320/271 243/319/270 252/333/270 
f 252/333/270 253/334/271 244/320/271 
f 245/321/272 244/320/271 253/334/271 
f 253/334/271 254/336/272 245/321/272 
f 246/322/273 245/321/272 254/336/272 
f 254/336/272 255/338/273 246/322/273 
f 246/322/273 255/338/273 248/324/266 
f 248/324/266 247/323/266 246/322/273 
f 256/11/4 257/12/5 258/9/2 
f 258/9/2 259/10/3 256/11/4 
f 260/15/8 261/16/9 262/13/6 
f 262/13/6 263/14/7 260/15/8 
f 264/20/11 265/17/10 266/18/10 
f 266/18/10 267/19/11 264/20/11 
f 268/21/12 269/22/13 270/23/13 
f 270/23/13 271/24/12 268/21/12 
f 272/28/17 273/25/14 274/26/15 
f 274/26/15 275/27/16 272/28/17 
f 276/32/21 277/29/18 278/30/19 
f 278/30/19 279/31/20 276/32/21 
f 276/32/21 280/33/22 281/34/23 
f 281/34/23 277/29/18 276/32/21 
f 281/34/23 282/36/25 283/35/24 
f 283/35/24 277/29/18 281/34/23 
f 278/30/19 277/29/18 283/35/24 
f 283/35/24 284/37/26 278/30/19 
f 272/28/17 279/31/20 278/30/19 
f 278/30/19 273/25/14 272/28/17 
f 273/25/14 278/30/19 284/37/26 
f 284/37/26 285/38/27 273/25/14 
f 274/26/15 273/25/14 285/38/27 
f 285/38/27 286/39/28 274/26/15 
f 287/41/29 288/42/30 289/43/30 
f 289/43/30 290/40/29 287/41/29 
f 291/45/32 276/46/33 279/47/34 
f 279/47/34 292/44/31 291/45/32 
f 291/45/32 293/49/36 280/48/35 
f 280/48/35 276/46/33 291/45/32 
f 266/18/10 265/17/10 287/41/29 
f 287/41/29 290/40/29 266/18/10 
f 266/51/38 293/49/36 291/45/32 
f 291/45/32 290/50/37 266/51/38 
f 290/50/37 291/45/32 292/44/31 
f 292/44/31 289/52/39 290/50/37 
f 294/55/42 295/56/43 272/53/40 
f 272/53/40 275/54/41 294/55/42 
f 279/47/34 272/53/40 295/56/43 
f 295/56/43 292/44/31 279/47/34 
f 271/24/12 289/43/30 288/42/30 
f 288/42/30 268/21/12 271/24/12 
f 271/57/44 289/52/39 292/44/31 
f 292/44/31 295/56/43 271/57/44 
f 271/57/44 295/56/43 294/55/42 
f 294/55/42 270/58/45 271/57/44 
f 296/59/46 297/60/47 298/61/47 
f 298/61/47 299/62/46 296/59/46 
f 300/66/51 301/63/48 302/64/49 
f 302/64/49 303/65/50 300/66/51 
f 300/66/51 275/27/16 274/26/15 
f 274/26/15 301/63/48 300/66/51 
f 274/26/15 286/39/28 304/67/52 
f 304/67/52 301/63/48 274/26/15 
f 302/64/49 301/63/48 304/67/52 
f 304/67/52 305/68/53 302/64/49 
f 300/72/57 303/69/54 306/70/55 
f 306/70/55 307/71/56 300/72/57 
f 275/54/41 300/72/57 307/71/56 
f 307/71/56 294/55/42 275/54/41 
f 269/22/13 296/59/46 299/62/46 
f 299/62/46 270/23/13 269/22/13 
f 299/73/58 270/58/45 294/55/42 
f 294/55/42 307/71/56 299/73/58 
f 299/73/58 307/71/56 306/70/55 
f 306/70/55 298/74/59 299/73/58 
f 308/76/61 281/34/23 280/33/22 
f 280/33/22 309/75/60 308/76/61 
f 302/78/49 310/79/62 311/80/63 
f 311/80/63 303/77/50 302/78/49 
f 312/82/64 310/79/62 302/78/49 
f 302/78/49 305/81/53 312/82/64 
f 309/75/60 311/80/63 310/79/62 
f 310/79/62 308/76/61 309/75/60 
f 313/83/65 308/76/61 310/79/62 
f 310/79/62 312/82/64 313/83/65 
f 308/76/61 313/83/65 282/36/25 
f 282/36/25 281/34/23 308/76/61 
f 297/60/47 314/84/66 315/85/66 
f 315/85/66 298/61/47 297/60/47 
f 316/87/68 306/70/55 303/69/54 
f 303/69/54 311/86/67 316/87/68 
f 306/70/55 316/87/68 315/88/69 
f 315/88/69 298/74/59 306/70/55 
f 293/49/36 317/89/70 309/90/71 
f 309/90/71 280/48/35 293/49/36 
f 309/90/71 317/89/70 316/87/68 
f 316/87/68 311/86/67 309/90/71 
f 267/19/11 315/85/66 314/84/66 
f 314/84/66 264/20/11 267/19/11 
f 317/89/70 267/91/72 315/88/69 
f 315/88/69 316/87/68 317/89/70 
f 266/51/38 267/91/72 317/89/70 
f 317/89/70 293/49/36 266/51/38 
f 318/95/76 319/92/73 320/93/74 
f 320/93/74 321/94/75 318/95/76 
f 322/99/80 323/96/77 324/97/78 
f 324/97/78 325/98/79 322/99/80 
f 326/101/82 327/102/83 328/103/84 
f 328/103/84 329/100/81 326/101/82 
f 287/107/88 288/104/85 330/105/86 
f 330/105/86 331/106/87 287/107/88 
f 332/108/89 265/109/90 287/107/88 
f 287/107/88 331/106/87 332/108/89 
f 326/101/82 333/111/92 334/110/91 
f 334/110/91 327/102/83 326/101/82 
f 331/106/87 327/102/83 334/110/91 
f 334/110/91 332/108/89 331/106/87 
f 331/106/87 330/105/86 328/103/84 
f 328/103/84 327/102/83 331/106/87 
f 335/115/96 268/112/93 269/113/94 
f 269/113/94 336/114/95 335/115/96 
f 335/115/96 330/105/86 288/104/85 
f 288/104/85 268/112/93 335/115/96 
f 325/98/79 324/97/78 329/100/81 
f 329/100/81 328/103/84 325/98/79 
f 325/98/79 328/103/84 330/105/86 
f 330/105/86 335/115/96 325/98/79 
f 336/114/95 322/99/80 325/98/79 
f 325/98/79 335/115/96 336/114/95 
f 337/116/97 338/117/98 339/118/99 
f 339/118/99 340/119/100 337/116/97 
f 341/121/102 342/120/101 326/101/82 
f 326/101/82 329/100/81 341/121/102 
f 326/101/82 342/120/101 343/122/103 
f 343/122/103 333/111/92 326/101/82 
f 263/14/7 337/116/97 340/119/100 
f 340/119/100 260/15/8 263/14/7 
f 343/122/103 342/120/101 337/123/104 
f 337/123/104 263/124/105 343/122/103 
f 338/125/106 337/123/104 342/120/101 
f 342/120/101 341/121/102 338/125/106 
f 324/97/78 323/96/77 344/126/107 
f 344/126/107 345/127/108 324/97/78 
f 324/97/78 345/127/108 341/121/102 
f 341/121/102 329/100/81 324/97/78 
f 318/95/76 339/118/99 338/117/98 
f 338/117/98 319/92/73 318/95/76 
f 345/127/108 319/128/109 338/125/106 
f 338/125/106 341/121/102 345/127/108 
f 320/129/110 319/128/109 345/127/108 
f 345/127/108 344/126/107 320/129/110 
f 333/111/92 346/130/111 347/131/112 
f 347/131/112 334/110/91 333/111/92 
f 348/134/115 349/135/116 350/132/113 
f 350/132/113 351/133/114 348/134/115 
f 352/138/119 353/139/120 296/136/117 
f 296/136/117 297/137/118 352/138/119 
f 336/114/95 269/113/94 296/136/117 
f 296/136/117 353/139/120 336/114/95 
f 350/132/113 323/96/77 322/99/80 
f 322/99/80 351/133/114 350/132/113 
f 351/133/114 322/99/80 336/114/95 
f 336/114/95 353/139/120 351/133/114 
f 348/134/115 351/133/114 353/139/120 
f 353/139/120 352/138/119 348/134/115 
f 354/140/121 349/141/116 348/142/115 
f 348/142/115 355/143/122 354/140/121 
f 352/145/119 297/146/118 314/147/124 
f 314/147/124 356/144/123 352/145/119 
f 348/142/115 352/145/119 356/144/123 
f 356/144/123 355/143/122 348/142/115 
f 264/149/126 265/109/90 332/108/89 
f 332/108/89 357/148/125 264/149/126 
f 356/144/123 314/147/124 264/149/126 
f 264/149/126 357/148/125 356/144/123 
f 346/130/111 354/140/121 355/143/122 
f 355/143/122 347/131/112 346/130/111 
f 355/143/122 356/144/123 357/148/125 
f 357/148/125 347/131/112 355/143/122 
f 334/110/91 347/131/112 357/148/125 
f 357/148/125 332/108/89 334/110/91 
f 358/152/129 359/153/130 360/150/127 
f 360/150/127 361/151/128 358/152/129 
f 350/132/113 349/135/116 362/154/131 
f 362/154/131 363/155/132 350/132/113 
f 344/126/107 323/96/77 350/132/113 
f 350/132/113 363/155/132 344/126/107 
f 360/150/127 321/94/75 320/93/74 
f 320/93/74 361/151/128 360/150/127 
f 363/155/132 361/156/133 320/129/110 
f 320/129/110 344/126/107 363/155/132 
f 358/157/134 361/156/133 363/155/132 
f 363/155/132 362/154/131 358/157/134 
f 364/158/135 359/153/130 358/152/129 
f 358/152/129 365/159/136 364/158/135 
f 362/161/131 349/141/116 354/140/121 
f 354/140/121 366/160/137 362/161/131 
f 366/160/137 365/162/138 358/163/134 
f 358/163/134 362/161/131 366/160/137 
f 346/130/111 333/111/92 343/122/103 
f 343/122/103 367/164/139 346/130/111 
f 366/160/137 354/140/121 346/130/111 
f 346/130/111 367/164/139 366/160/137 
f 365/159/136 262/13/6 261/16/9 
f 261/16/9 364/158/135 365/159/136 
f 367/164/139 262/165/140 365/162/138 
f 365/162/138 366/160/137 367/164/139 
f 263/124/105 262/165/140 367/164/139 
f 367/164/139 343/122/103 263/124/105 
f 368/166/141 369/167/274 370/168/275 
f 370/168/275 371/169/144 368/166/141 
f 372/172/147 373/173/148 374/170/145 
f 374/170/145 375/171/146 372/172/147 
f 376/176/151 377/177/152 378/174/149 
f 378/174/149 379/175/150 376/176/151 
f 380/178/153 381/179/154 382/180/155 
f 382/180/155 383/181/156 380/178/153 
f 384/183/158 380/178/153 383/181/156 
f 383/181/156 385/182/157 384/183/158 
f 380/178/153 384/183/158 260/15/8 
f 260/15/8 340/119/100 380/178/153 
f 380/178/153 340/119/100 339/118/99 
f 339/118/99 381/179/154 380/178/153 
f 379/175/150 378/174/149 382/180/155 
f 382/180/155 381/179/154 379/175/150 
f 381/179/154 339/118/99 318/95/76 
f 318/95/76 379/175/150 381/179/154 
f 318/95/76 321/94/75 376/176/151 
f 376/176/151 379/175/150 318/95/76 
f 386/184/159 387/185/160 388/186/161 
f 388/186/161 389/187/162 386/184/159 
f 390/189/164 391/190/165 382/191/166 
f 382/191/166 383/188/163 390/189/164 
f 385/192/276 392/193/168 390/189/164 
f 390/189/164 383/188/163 385/192/276 
f 386/184/159 389/187/162 370/168/275 
f 370/168/275 369/167/274 386/184/159 
f 389/187/162 390/189/164 392/193/168 
f 392/193/168 370/168/275 389/187/162 
f 389/187/162 388/186/161 391/190/165 
f 391/190/165 390/189/164 389/187/162 
f 393/196/171 394/197/172 377/194/169 
f 377/194/169 378/195/170 393/196/171 
f 391/190/165 393/196/171 378/195/170 
f 378/195/170 382/191/166 391/190/165 
f 387/185/160 374/170/145 373/173/148 
f 373/173/148 388/186/161 387/185/160 
f 391/190/165 388/186/161 373/173/148 
f 373/173/148 393/196/171 391/190/165 
f 394/197/172 393/196/171 373/173/148 
f 373/173/148 372/172/147 394/197/172 
f 395/199/174 396/200/175 397/201/176 
f 397/201/176 398/198/173 395/199/174 
f 399/203/178 400/204/179 401/205/180 
f 401/205/180 402/202/177 399/203/178 
f 376/176/151 399/203/178 402/202/177 
f 402/202/177 377/177/152 376/176/151 
f 376/176/151 321/94/75 360/150/127 
f 360/150/127 399/203/178 376/176/151 
f 399/203/178 360/150/127 359/153/130 
f 359/153/130 400/204/179 399/203/178 
f 401/207/182 402/208/183 403/209/184 
f 403/209/184 404/206/181 401/207/182 
f 394/197/172 403/209/184 402/208/183 
f 402/208/183 377/194/169 394/197/172 
f 398/198/173 397/201/176 372/172/147 
f 372/172/147 375/171/146 398/198/173 
f 403/209/184 394/197/172 372/172/147 
f 372/172/147 397/201/176 403/209/184 
f 397/201/176 396/200/175 404/206/181 
f 404/206/181 403/209/184 397/201/176 
f 405/210/185 406/211/186 384/183/158 
f 384/183/158 385/182/157 405/210/185 
f 407/213/188 408/212/187 401/205/180 
f 401/205/180 400/204/179 407/213/188 
f 364/158/135 407/213/188 400/204/179 
f 400/204/179 359/153/130 364/158/135 
f 407/213/188 406/211/186 405/210/185 
f 405/210/185 408/212/187 407/213/188 
f 261/16/9 406/211/186 407/213/188 
f 407/213/188 364/158/135 261/16/9 
f 261/16/9 260/15/8 384/183/158 
f 384/183/158 406/211/186 261/16/9 
f 409/215/190 410/214/189 396/200/175 
f 396/200/175 395/199/174 409/215/190 
f 408/217/192 401/207/182 404/206/181 
f 404/206/181 411/216/191 408/217/192 
f 404/206/181 396/200/175 410/214/189 
f 410/214/189 411/216/191 404/206/181 
f 405/218/193 412/219/194 392/193/168 
f 392/193/168 385/192/276 405/218/193 
f 408/217/192 411/216/191 412/219/194 
f 412/219/194 405/218/193 408/217/192 
f 368/166/141 371/169/144 410/214/189 
f 410/214/189 409/215/190 368/166/141 
f 371/169/144 412/219/194 411/216/191 
f 411/216/191 410/214/189 371/169/144 
f 371/169/144 370/168/275 392/193/168 
f 392/193/168 412/219/194 371/169/144 
f 413/221/196 414/222/197 415/223/198 
f 415/223/198 416/220/195 413/221/196 
f 417/226/201 418/227/202 419/224/199 
f 419/224/199 420/225/200 417/226/201 
f 421/230/205 422/231/206 423/228/277 
f 423/228/277 424/229/204 421/230/205 
f 425/232/207 386/233/208 387/234/209 
f 387/234/209 426/235/210 425/232/207 
f 386/233/208 425/232/207 427/236/211 
f 427/236/211 369/237/212 386/233/208 
f 422/231/206 428/238/213 429/239/214 
f 429/239/214 423/228/277 422/231/206 
f 423/228/277 429/239/214 427/236/211 
f 427/236/211 425/232/207 423/228/277 
f 425/232/207 426/235/210 424/229/204 
f 424/229/204 423/228/277 425/232/207 
f 430/240/215 431/241/216 374/242/217 
f 374/242/217 375/243/218 430/240/215 
f 374/242/217 431/241/216 426/235/210 
f 426/235/210 387/234/209 374/242/217 
f 421/230/205 424/229/204 420/225/200 
f 420/225/200 419/224/199 421/230/205 
f 426/235/210 431/241/216 420/225/200 
f 420/225/200 424/229/204 426/235/210 
f 420/225/200 431/241/216 430/240/215 
f 430/240/215 417/226/201 420/225/200 
f 432/247/222 433/244/219 434/245/220 
f 434/245/220 435/246/221 432/247/222 
f 436/249/224 437/248/223 422/231/206 
f 422/231/206 421/230/205 436/249/224 
f 438/250/225 428/238/213 422/231/206 
f 422/231/206 437/248/223 438/250/225 
f 257/12/5 256/11/4 434/245/220 
f 434/245/220 433/244/219 257/12/5 
f 256/11/4 438/250/225 437/248/223 
f 437/248/223 434/245/220 256/11/4 
f 436/249/224 435/246/221 434/245/220 
f 434/245/220 437/248/223 436/249/224 
f 419/224/199 418/227/202 439/251/226 
f 439/251/226 440/252/227 419/224/199 
f 419/224/199 440/252/227 436/249/224 
f 436/249/224 421/230/205 419/224/199 
f 413/221/196 416/220/195 432/247/222 
f 432/247/222 435/246/221 413/221/196 
f 413/221/196 435/246/221 436/249/224 
f 436/249/224 440/252/227 413/221/196 
f 440/252/227 439/251/226 414/222/197 
f 414/222/197 413/221/196 440/252/227 
f 441/254/229 442/253/228 429/239/214 
f 429/239/214 428/238/213 441/254/229 
f 443/257/232 444/258/233 445/255/230 
f 445/255/230 446/256/231 443/257/232 
f 447/261/236 398/262/237 395/259/234 
f 395/259/234 448/260/235 447/261/236 
f 430/240/215 375/243/218 398/262/237 
f 398/262/237 447/261/236 430/240/215 
f 446/256/231 445/255/230 418/227/202 
f 418/227/202 417/226/201 446/256/231 
f 446/256/231 417/226/201 430/240/215 
f 430/240/215 447/261/236 446/256/231 
f 443/257/232 446/256/231 447/261/236 
f 447/261/236 448/260/235 443/257/232 
f 449/263/238 444/264/233 443/265/232 
f 443/265/232 450/266/239 449/263/238 
f 451/267/240 448/268/235 395/269/234 
f 395/269/234 409/270/241 451/267/240 
f 451/267/240 450/266/239 443/265/232 
f 443/265/232 448/268/235 451/267/240 
f 368/272/243 369/237/212 427/236/211 
f 427/236/211 452/271/242 368/272/243 
f 452/271/242 451/267/240 409/270/241 
f 409/270/241 368/272/243 452/271/242 
f 450/266/239 442/253/228 441/254/229 
f 441/254/229 449/263/238 450/266/239 
f 450/266/239 451/267/240 452/271/242 
f 452/271/242 442/253/228 450/266/239 
f 442/253/228 452/271/242 427/236/211 
f 427/236/211 429/239/214 442/253/228 
f 453/273/244 454/274/245 455/275/246 
f 455/275/246 456/276/247 453/273/244 
f 457/277/248 458/278/249 445/255/230 
f 445/255/230 444/258/233 457/277/248 
f 458/278/249 439/251/226 418/227/202 
f 418/227/202 445/255/230 458/278/249 
f 415/223/198 414/222/197 454/274/245 
f 454/274/245 453/273/244 415/223/198 
f 439/251/226 458/278/249 454/274/245 
f 454/274/245 414/222/197 439/251/226 
f 455/275/246 454/274/245 458/278/249 
f 458/278/249 457/277/248 455/275/246 
f 459/282/251 460/279/250 456/280/247 
f 456/280/247 455/281/246 459/282/251 
f 457/284/248 444/264/233 449/263/238 
f 449/263/238 461/283/252 457/284/248 
f 461/283/252 459/282/251 455/281/246 
f 455/281/246 457/284/248 461/283/252 
f 462/285/253 441/254/229 428/238/213 
f 428/238/213 438/250/225 462/285/253 
f 461/283/252 449/263/238 441/254/229 
f 441/254/229 462/285/253 461/283/252 
f 460/279/250 459/282/251 259/10/3 
f 259/10/3 258/9/2 460/279/250 
f 462/285/253 259/10/3 459/282/251 
f 459/282/251 461/283/252 462/285/253 
f 259/10/3 462/285/253 438/250/225 
f 438/250/225 256/11/4 259/10/3 
f 463/288/254 464/289/254 465/286/254 
f 465/286/254 466/287/254 463/288/254 
f 464/290/1 467/291/1 468/292/1 
f 468/292/1 465/293/1 464/290/1 
f 468/287/255 467/288/255 469/289/255 
f 469/289/255 470/286/255 468/287/255 
f 463/297/256 469/294/256 467/295/256 
f 467/295/256 464/296/256 463/297/256 
f 466/294/257 465/295/257 468/296/257 
f 468/296/257 470/297/257 466/294/257 
f 471/298/258 472/299/258 473/300/258 
f 473/300/258 474/301/258 471/298/258 
f 475/304/259 476/305/259 471/302/259 
f 471/302/259 474/303/259 475/304/259 
f 477/307/260 476/305/260 475/304/260 
f 475/304/260 478/306/260 477/307/260 
f 479/309/261 480/308/261 477/307/261 
f 477/307/261 478/306/261 479/309/261 
f 481/310/262 480/308/262 479/309/262 
f 479/309/262 482/311/262 481/310/262 
f 481/310/263 482/311/263 483/312/263 
f 483/312/263 484/313/263 481/310/263 
f 484/313/264 483/312/264 485/314/264 
f 485/314/264 486/315/264 484/313/264 
f 485/314/265 473/300/265 472/299/265 
f 472/299/265 486/315/265 485/314/265 
f 487/317/1 488/318/1 489/319/1 
f 487/317/1 489/319/1 490/320/1 
f 490/320/1 491/321/1 492/322/1 
f 487/317/1 490/320/1 492/322/1 
f 493/316/1 487/317/1 492/322/1 
f 494/323/1 493/316/1 492/322/1 
f 495/324/1 472/325/1 471/326/1 
f 471/326/1 496/327/1 495/324/1 
f 476/328/1 497/329/1 496/327/1 
f 496/327/1 471/326/1 476/328/1 
f 497/329/1 476/328/1 477/330/1 
f 477/330/1 498/331/1 497/329/1 
f 480/332/1 499/333/1 498/331/1 
f 498/331/1 477/330/1 480/332/1 
f 499/333/1 480/332/1 481/335/1 
f 481/335/1 500/334/1 499/333/1 
f 500/334/1 481/335/1 484/337/1 
f 484/337/1 501/336/1 500/334/1 
f 502/338/1 501/336/1 484/337/1 
f 484/337/1 486/339/1 502/338/1 
f 486/339/1 472/325/1 495/324/1 
f 495/324/1 502/338/1 486/339/1 
f 493/316/267 494/323/266 495/324/266 
f 495/324/266 496/327/267 493/316/267 
f 497/329/268 487/317/268 493/316/267 
f 493/316/267 496/327/267 497/329/268 
f 488/318/269 487/317/268 497/329/268 
f 497/329/268 498/331/269 488/318/269 
f 499/333/270 489/319/270 488/318/269 
f 488/318/269 498/331/269 499/333/270 
f 490/320/271 489/319/270 499/333/270 
f 499/333/270 500/334/271 490/320/271 
f 490/320/271 500/334/271 501/336/272 
f 501/336/272 491/321/272 490/320/271 
f 492/322/273 491/321/272 501/336/272 
f 501/336/272 502/338/273 492/322/273 
f 502/338/273 495/324/266 494/323/266 
f 494/323/266 492/322/273 502/338/273 
# 926 faces

